# xmcd
#
# Track frame offsets:
# 150
# 20285
# 37435
# 54685
# 67245
# 76395
# 95520
# 115095
# 140445
# 153922
# 170595
# 187320
# 203520
# 218370
# 234720
# 252270
# 274095
# 288795
# 302445
# 318985
#
# Disc length: 4460 seconds
#
#
# Revision: 0
# Processed by: cddbd v1.5.2PL0 Copyright (c) Steve Scherf et al.
# Submitted via: FreeRIP 2.951 
#
DISCID=20116a14
DTITLE=DEMIS ROUSSOS - 20 SUPER SUCESSOS
DYEAR=2007
DGENRE=Ballad
TTITLE0=WE SHALL DANCE
TTITLE1=MARIE JOLIE
TTITLE2=GOODBYE MY LOVE GOODBYE
TTITLE3=HAPPY TO BE ON AN ISLAND IN THE SUN
TTITLE4=SCHONES MAEDCHEN AUS ARCADIA
TTITLE5=MY REASON
TTITLE6=MY FRIEND THE WIND
TTITLE7=IN MY DREAMS
TTITLE8=RAIN AND TEARS
TTITLE9=IT'S FIVE O'CLOCK
TTITLE10=SUCH A FUNNY NIGHT
TTITLE11=VELVET MORNINGS
TTITLE12=FOREVER AND EVER
TTITLE13=I WANT TO LIVE
TTITLE14=TIME
TTITLE15=SPRING SUMMER WINTER AND FALL
TTITLE16=LOST IN LOVE
TTITLE17=SOMEDAY SOMEWHERE
TTITLE18=MY ONLY FASCINATION
TTITLE19=THAT ONCE IN A LIFETIME
EXTD=
EXTT0=
EXTT1=
EXTT2=
EXTT3=
EXTT4=
EXTT5=
EXTT6=
EXTT7=
EXTT8=
EXTT9=
EXTT10=
EXTT11=
EXTT12=
EXTT13=
EXTT14=
EXTT15=
EXTT16=
EXTT17=
EXTT18=
EXTT19=
PLAYORDER=
